REM DIRINDEX 1\8,1\2\11,1\3\12,1\3\14,1\5\15,1\5\16,1\6\17,1\6\18,1\4\19,1\4\20,1\4\21,1\4\22,1\7\23,1\7\24,1\7\25,1\2\9\26,1\2\9\27,1\2\10\28,1\2\10\29,1\2\10\30,1\2\10\31,1\2\10\32,1\3\13\33,1\3\13\34,1\3\13\35
REM DIRNAME folder01,folder02,folder03,folder04,folder05,folder06,folder07,folder08,folder09,folder10,folder11,folder12,folder13,folder14,folder15,folder16,folder17,folder18,folder19,folder20,folder21,folder22,folder23,folder24,folder25,folder26,folder27,folder28,folder29,folder30,folder31,folder32,folder33,folder34,folder35
TITLE ""
FILE "2-43 043_UNIT4_SET2.mp3" MP3
  TRACK 01 AUDIO
    TITLE "11:cjc123_5022"
    INDEX 01 00:00:00
  TRACK 02 AUDIO
    TITLE "0:"
    INDEX 01 00:02:53
  TRACK 03 AUDIO
    TITLE "28:cjc123_5023"
    INDEX 01 00:03:33
  TRACK 04 AUDIO
    TITLE "0:"
    INDEX 01 00:04:33
  TRACK 05 AUDIO
    TITLE "29:cjc123_5024"
    INDEX 01 00:04:60
  TRACK 06 AUDIO
    TITLE "0:"
    INDEX 01 00:05:57
  TRACK 07 AUDIO
    TITLE "30:cjc123_5025"
    INDEX 01 00:05:69
  TRACK 08 AUDIO
    TITLE "0:"
    INDEX 01 00:06:71
  TRACK 09 AUDIO
    TITLE "31:cjc123_5026"
    INDEX 01 00:07:43
  TRACK 10 AUDIO
    TITLE "0:"
    INDEX 01 00:12:73
  TRACK 11 AUDIO
    TITLE "32:cjc123_5027"
    INDEX 01 00:13:33
  TRACK 12 AUDIO
    TITLE "0:"
    INDEX 01 00:18:39
  TRACK 13 AUDIO
    TITLE "28:cjc123_5028"
    INDEX 01 00:18:74
  TRACK 14 AUDIO
    TITLE "0:"
    INDEX 01 00:20:08
  TRACK 15 AUDIO
    TITLE "29:cjc123_5029"
    INDEX 01 00:20:28
  TRACK 16 AUDIO
    TITLE "0:"
    INDEX 01 00:22:27
  TRACK 17 AUDIO
    TITLE "30:cjc123_5030"
    INDEX 01 00:22:44
  TRACK 18 AUDIO
    TITLE "0:"
    INDEX 01 00:23:59
  TRACK 19 AUDIO
    TITLE "31:cjc123_5031"
    INDEX 01 00:24:33
  TRACK 20 AUDIO
    TITLE "0:"
    INDEX 01 00:30:22
  TRACK 21 AUDIO
    TITLE "32:cjc123_5032"
    INDEX 01 00:30:52
  TRACK 22 AUDIO
    TITLE "0:"
    INDEX 01 00:37:08
  TRACK 23 AUDIO
    TITLE "28:cjc123_5033"
    INDEX 01 00:37:52
  TRACK 24 AUDIO
    TITLE "0:"
    INDEX 01 00:38:55
  TRACK 25 AUDIO
    TITLE "29:cjc123_5034"
    INDEX 01 00:39:07
  TRACK 26 AUDIO
    TITLE "0:"
    INDEX 01 00:40:44
  TRACK 27 AUDIO
    TITLE "30:cjc123_5035"
    INDEX 01 00:40:58
  TRACK 28 AUDIO
    TITLE "0:"
    INDEX 01 00:41:63
  TRACK 29 AUDIO
    TITLE "31:cjc123_5036"
    INDEX 01 00:42:55
  TRACK 30 AUDIO
    TITLE "0:"
    INDEX 01 00:46:56
  TRACK 31 AUDIO
    TITLE "32:cjc123_5037"
    INDEX 01 00:47:21
  TRACK 32 AUDIO
    TITLE "0:"
    INDEX 01 00:52:00
  TRACK 33 AUDIO
    TITLE "28:cjc123_5038"
    INDEX 01 00:52:47
  TRACK 34 AUDIO
    TITLE "0:"
    INDEX 01 00:54:01
  TRACK 35 AUDIO
    TITLE "29:cjc123_5039"
    INDEX 01 00:54:19
  TRACK 36 AUDIO
    TITLE "0:"
    INDEX 01 00:55:30
  TRACK 37 AUDIO
    TITLE "30:cjc123_5040"
    INDEX 01 00:55:46
  TRACK 38 AUDIO
    TITLE "0:"
    INDEX 01 00:56:59
  TRACK 39 AUDIO
    TITLE "31:cjc123_5041"
    INDEX 01 00:57:41
  TRACK 40 AUDIO
    TITLE "0:"
    INDEX 01 01:01:62
  TRACK 41 AUDIO
    TITLE "32:cjc123_5042"
    INDEX 01 01:02:20
  TRACK 42 AUDIO
    TITLE "0:"
    INDEX 01 01:06:22
  TRACK 43 AUDIO
    TITLE "28:cjc123_5043"
    INDEX 01 01:06:67
  TRACK 44 AUDIO
    TITLE "0:"
    INDEX 01 01:07:53
  TRACK 45 AUDIO
    TITLE "29:cjc123_5044"
    INDEX 01 01:07:74
  TRACK 46 AUDIO
    TITLE "0:"
    INDEX 01 01:08:72
  TRACK 47 AUDIO
    TITLE "30:cjc123_5045"
    INDEX 01 01:09:14
  TRACK 48 AUDIO
    TITLE "0:"
    INDEX 01 01:10:02
  TRACK 49 AUDIO
    TITLE "31:cjc123_5046"
    INDEX 01 01:10:43
  TRACK 50 AUDIO
    TITLE "0:"
    INDEX 01 01:13:71
  TRACK 51 AUDIO
    TITLE "32:cjc123_5047"
    INDEX 01 01:14:27
  TRACK 52 AUDIO
    TITLE "0:"
    INDEX 01 01:17:55
  TRACK 53 AUDIO
    TITLE "28:cjc123_5048"
    INDEX 01 01:18:27
  TRACK 54 AUDIO
    TITLE "0:"
    INDEX 01 01:19:34
  TRACK 55 AUDIO
    TITLE "29:cjc123_5049"
    INDEX 01 01:19:54
  TRACK 56 AUDIO
    TITLE "0:"
    INDEX 01 01:21:25
  TRACK 57 AUDIO
    TITLE "30:cjc123_5050"
    INDEX 01 01:21:41
  TRACK 58 AUDIO
    TITLE "0:"
    INDEX 01 01:22:42
  TRACK 59 AUDIO
    TITLE "31:cjc123_5051"
    INDEX 01 01:23:16
  TRACK 60 AUDIO
    TITLE "0:"
    INDEX 01 01:28:49
  TRACK 61 AUDIO
    TITLE "32:cjc123_5052"
    INDEX 01 01:29:35
  TRACK 62 AUDIO
    TITLE "0:"
    INDEX 01 01:35:00
  TRACK 63 AUDIO
    TITLE "28:cjc123_5053"
    INDEX 01 01:35:45
  TRACK 64 AUDIO
    TITLE "0:"
    INDEX 01 01:37:05
  TRACK 65 AUDIO
    TITLE "29:cjc123_5054"
    INDEX 01 01:37:34
  TRACK 66 AUDIO
    TITLE "0:"
    INDEX 01 01:38:63
  TRACK 67 AUDIO
    TITLE "30:cjc123_5055"
    INDEX 01 01:39:02
  TRACK 68 AUDIO
    TITLE "0:"
    INDEX 01 01:40:31
  TRACK 69 AUDIO
    TITLE "31:cjc123_5056"
    INDEX 01 01:41:36
  TRACK 70 AUDIO
    TITLE "0:"
    INDEX 01 01:48:18
  TRACK 71 AUDIO
    TITLE "32:cjc123_5057"
    INDEX 01 01:48:36
  TRACK 72 AUDIO
    TITLE "0:"
    INDEX 01 01:54:15
  TRACK 73 AUDIO
    TITLE "28:cjc123_5058"
    INDEX 01 01:54:39
  TRACK 74 AUDIO
    TITLE "0:"
    INDEX 01 01:55:67
  TRACK 75 AUDIO
    TITLE "29:cjc123_5059"
    INDEX 01 01:56:10
  TRACK 76 AUDIO
    TITLE "0:"
    INDEX 01 01:57:47
  TRACK 77 AUDIO
    TITLE "30:cjc123_5060"
    INDEX 01 01:57:62
  TRACK 78 AUDIO
    TITLE "0:"
    INDEX 01 01:59:06
  TRACK 79 AUDIO
    TITLE "31:cjc123_5061"
    INDEX 01 02:00:02
  TRACK 80 AUDIO
    TITLE "0:"
    INDEX 01 02:05:15
  TRACK 81 AUDIO
    TITLE "32:cjc123_5062"
    INDEX 01 02:05:44
  TRACK 82 AUDIO
    TITLE "0:"
    INDEX 01 02:11:12
  TRACK 83 AUDIO
    TITLE "28:cjc123_5063"
    INDEX 01 02:11:35
  TRACK 84 AUDIO
    TITLE "0:"
    INDEX 01 02:12:42
  TRACK 85 AUDIO
    TITLE "29:cjc123_5064"
    INDEX 01 02:12:68
  TRACK 86 AUDIO
    TITLE "0:"
    INDEX 01 02:13:71
  TRACK 87 AUDIO
    TITLE "30:cjc123_5065"
    INDEX 01 02:14:14
  TRACK 88 AUDIO
    TITLE "0:"
    INDEX 01 02:15:23
  TRACK 89 AUDIO
    TITLE "31:cjc123_5066"
    INDEX 01 02:15:72
  TRACK 90 AUDIO
    TITLE "0:"
    INDEX 01 02:20:26
  TRACK 91 AUDIO
    TITLE "32:cjc123_5067"
    INDEX 01 02:20:61
  TRACK 92 AUDIO
    TITLE "0:"
    INDEX 01 02:25:53
  TRACK 93 AUDIO
    TITLE "28:cjc123_5068"
    INDEX 01 02:26:29
  TRACK 94 AUDIO
    TITLE "0:"
    INDEX 01 02:27:44
  TRACK 95 AUDIO
    TITLE "29:cjc123_5069"
    INDEX 01 02:27:67
  TRACK 96 AUDIO
    TITLE "0:"
    INDEX 01 02:29:35
  TRACK 97 AUDIO
    TITLE "30:cjc123_5070"
    INDEX 01 02:29:47
  TRACK 98 AUDIO
    TITLE "0:"
    INDEX 01 02:30:70
  TRACK 99 AUDIO
    TITLE "31:cjc123_5071"
    INDEX 01 02:31:44
  TRACK 100 AUDIO
    TITLE "0:"
    INDEX 01 02:37:09
  TRACK 101 AUDIO
    TITLE "32:cjc123_5072"
    INDEX 01 02:37:58
  TRACK 102 AUDIO
    TITLE "0:"
    INDEX 01 02:44:07
  TRACK 103 AUDIO
    TITLE "28:cjc123_5073"
    INDEX 01 02:44:64
  TRACK 104 AUDIO
    TITLE "0:"
    INDEX 01 02:46:12
  TRACK 105 AUDIO
    TITLE "29:cjc123_5074"
    INDEX 01 02:46:37
  TRACK 106 AUDIO
    TITLE "0:"
    INDEX 01 02:47:70
  TRACK 107 AUDIO
    TITLE "30:cjc123_5075"
    INDEX 01 02:48:09
  TRACK 108 AUDIO
    TITLE "0:"
    INDEX 01 02:49:34
  TRACK 109 AUDIO
    TITLE "31:cjc123_5076"
    INDEX 01 02:50:35
  TRACK 110 AUDIO
    TITLE "0:"
    INDEX 01 02:56:18
  TRACK 111 AUDIO
    TITLE "32:cjc123_5077"
    INDEX 01 02:56:53
  TRACK 112 AUDIO
    TITLE "0:"
    INDEX 01 03:01:29
  TRACK 113 AUDIO
    TITLE "28:cjc123_5078"
    INDEX 01 03:01:62
  TRACK 114 AUDIO
    TITLE "0:"
    INDEX 01 03:03:08
  TRACK 115 AUDIO
    TITLE "29:cjc123_5079"
    INDEX 01 03:03:36
  TRACK 116 AUDIO
    TITLE "0:"
    INDEX 01 03:04:47
  TRACK 117 AUDIO
    TITLE "30:cjc123_5080"
    INDEX 01 03:04:65
  TRACK 118 AUDIO
    TITLE "0:"
    INDEX 01 03:06:13
  TRACK 119 AUDIO
    TITLE "31:cjc123_5081"
    INDEX 01 03:06:60
  TRACK 120 AUDIO
    TITLE "0:"
    INDEX 01 03:11:27
  TRACK 121 AUDIO
    TITLE "32:cjc123_5082"
    INDEX 01 03:11:65
  TRACK 122 AUDIO
    TITLE "0:"
    INDEX 01 03:15:33
  TRACK 123 AUDIO
    TITLE "28:cjc123_5083"
    INDEX 01 03:16:07
  TRACK 124 AUDIO
    TITLE "0:"
    INDEX 01 03:17:12
  TRACK 125 AUDIO
    TITLE "29:cjc123_5084"
    INDEX 01 03:17:38
  TRACK 126 AUDIO
    TITLE "0:"
    INDEX 01 03:18:69
  TRACK 127 AUDIO
    TITLE "30:cjc123_5085"
    INDEX 01 03:19:09
  TRACK 128 AUDIO
    TITLE "0:"
    INDEX 01 03:20:05
  TRACK 129 AUDIO
    TITLE "31:cjc123_5086"
    INDEX 01 03:20:58
  TRACK 130 AUDIO
    TITLE "0:"
    INDEX 01 03:25:47
  TRACK 131 AUDIO
    TITLE "32:cjc123_5087"
    INDEX 01 03:26:04
  TRACK 132 AUDIO
    TITLE "0:"
    INDEX 01 03:30:74
  TRACK 133 AUDIO
    TITLE "28:cjc123_5088"
    INDEX 01 03:31:46
  TRACK 134 AUDIO
    TITLE "0:"
    INDEX 01 03:32:47
  TRACK 135 AUDIO
    TITLE "29:cjc123_5089"
    INDEX 01 03:32:73
  TRACK 136 AUDIO
    TITLE "0:"
    INDEX 01 03:34:03
  TRACK 137 AUDIO
    TITLE "30:cjc123_5090"
    INDEX 01 03:34:17
  TRACK 138 AUDIO
    TITLE "0:"
    INDEX 01 03:35:24
  TRACK 139 AUDIO
    TITLE "31:cjc123_5091"
    INDEX 01 03:35:73
  TRACK 140 AUDIO
    TITLE "0:"
    INDEX 01 03:39:47
  TRACK 141 AUDIO
    TITLE "32:cjc123_5092"
    INDEX 01 03:40:02
  TRACK 142 AUDIO
    TITLE "0:"
    INDEX 01 03:43:71
  TRACK 143 AUDIO
    TITLE "28:cjc123_5093"
    INDEX 01 03:44:39
  TRACK 144 AUDIO
    TITLE "0:"
    INDEX 01 03:45:60
  TRACK 145 AUDIO
    TITLE "29:cjc123_5094"
    INDEX 01 03:46:00
  TRACK 146 AUDIO
    TITLE "0:"
    INDEX 01 03:47:12
  TRACK 147 AUDIO
    TITLE "30:cjc123_5095"
    INDEX 01 03:47:25
  TRACK 148 AUDIO
    TITLE "0:"
    INDEX 01 03:48:42
  TRACK 149 AUDIO
    TITLE "31:cjc123_5096"
    INDEX 01 03:49:14
  TRACK 150 AUDIO
    TITLE "0:"
    INDEX 01 03:53:34
  TRACK 151 AUDIO
    TITLE "32:cjc123_5097"
    INDEX 01 03:53:67
  TRACK 152 AUDIO
    TITLE "0:"
    INDEX 01 03:58:27
